<svg xmlns="http://www.w3.org/2000/svg" viewBox="0 0 316 316"><defs><style>.cls-1{fill:#c19405;}.cls-2{opacity:0.42;}.cls-3{fill:#ffd11a;}</style></defs><title>Asset 1</title><g id="Layer_2" data-name="Layer 2"><g id="Layer_1-2" data-name="Layer 1"><path d="M158,0A158,158,0,1,0,316,158,158,158,0,0,0,158,0Zm-.12,184.88a26.5,26.5,0,1,1,26.5-26.5A26.5,26.5,0,0,1,157.88,184.88Z"/><path class="cls-1" d="M158,103.75A54.25,54.25,0,1,0,212.25,158,54.25,54.25,0,0,0,158,103.75Zm-.12,81.13a26.5,26.5,0,1,1,26.5-26.5A26.5,26.5,0,0,1,157.88,184.88Z"/><g class="cls-2"><path class="cls-3" d="M121.64,96.1C157.21,75,202.67,86,223.17,120.55c16.21,27.35,12,61.28-8.1,84.72C236.21,181.8,241,147,224.43,119.12c-20.5-34.59-66-45.54-101.53-24.45a76.7,76.7,0,0,0-19.18,16.08A76.81,76.81,0,0,1,121.64,96.1Z"/><path class="cls-3" d="M123.6,98.89c33.48-19.85,76.28-9.54,95.58,23,15.27,25.75,11.27,57.7-7.62,79.76,19.9-22.09,24.39-54.83,8.81-81.11-19.3-32.56-62.1-42.87-95.59-23a72.24,72.24,0,0,0-18,15.15A72,72,0,0,1,123.6,98.89Z"/><path class="cls-3" d="M125.57,102.2c31.44-18.64,71.63-9,89.75,21.61C229.65,148,225.9,178,208.16,198.7c18.69-20.74,22.9-51.48,8.27-76.16-18.12-30.57-58.3-40.25-89.75-21.61a67.9,67.9,0,0,0-17,14.22A67.93,67.93,0,0,1,125.57,102.2Z"/></g><g class="cls-2"><path class="cls-3" d="M113.19,67.87c46.6-27.62,106.15-13.28,133,32,21.24,35.82,15.68,80.28-10.61,111,27.7-30.75,33.94-76.3,12.26-112.86-26.86-45.31-86.4-59.65-133-32A100.4,100.4,0,0,0,89.72,87.07,100.54,100.54,0,0,1,113.19,67.87Z"/><path class="cls-3" d="M115.76,71.53C159.62,45.52,215.68,59,241,101.68c20,33.73,14.76,75.58-10,104.48,26.08-28.94,32-71.82,11.54-106.25-25.28-42.65-81.34-56.15-125.21-30.15A94.5,94.5,0,0,0,93.66,89.6,94.76,94.76,0,0,1,115.76,71.53Z"/><path class="cls-3" d="M118.34,75.86c41.19-24.42,93.83-11.74,117.57,28.31,18.78,31.67,13.86,71-9.38,98.1,24.48-27.17,30-67.44,10.84-99.76C213.63,62.46,161,49.78,119.8,74.2A89,89,0,0,0,97.59,92.83,88.91,88.91,0,0,1,118.34,75.86Z"/></g><g class="cls-2"><path class="cls-3" d="M99.05,35.88C163.24-2.17,245.26,17.59,282.26,80c29.26,49.35,21.6,110.59-14.62,152.88,38.16-42.35,46.75-105.1,16.89-155.46-37-62.42-119-82.17-183.21-44.12a138.26,138.26,0,0,0-34.6,29A138.72,138.72,0,0,1,99.05,35.88Z"/><path class="cls-3" d="M102.58,40.92C163,5.1,240.24,23.7,275.07,82.46c27.54,46.46,20.33,104.12-13.77,143.93,35.92-39.87,44-98.95,15.91-146.36C242.37,21.26,165.15,2.67,104.72,38.49A130.33,130.33,0,0,0,72.14,65.82,130.73,130.73,0,0,1,102.58,40.92Z"/><path class="cls-3" d="M106.15,46.89c56.73-33.63,129.24-16.17,162,39C294,129.51,287.19,183.65,255.17,221c33.73-37.44,41.33-92.9,14.94-137.43-32.71-55.17-105.22-72.63-162-39A122.17,122.17,0,0,0,77.57,70.27,121.94,121.94,0,0,1,106.15,46.89Z"/></g><circle cx="158.88" cy="158.38" r="8"/></g></g></svg>