<svg xmlns="http://www.w3.org/2000/svg" xmlns:xlink="http://www.w3.org/1999/xlink" width="30.41" height="43.337" viewBox="0 0 30.41 43.337">
  <defs>
    <filter id="left-arrow" x="0" y="0" width="30.41" height="43.337" filterUnits="userSpaceOnUse">
      <feOffset dy="1" input="SourceAlpha"/>
      <feGaussianBlur stdDeviation="2" result="blur"/>
      <feFlood flood-opacity="0.612"/>
      <feComposite operator="in" in2="blur"/>
      <feComposite in="SourceGraphic"/>
    </filter>
  </defs>
  <g transform="matrix(1, 0, 0, 1, 0, 0)" filter="url(#left-arrow)">
    <path id="left-arrow-2" data-name="left-arrow" d="M107.666,15.675,119.39,3.952a1.718,1.718,0,0,0,0-2.424L118.362.5a1.717,1.717,0,0,0-2.424,0L101.98,14.459a1.73,1.73,0,0,0,0,2.433l13.945,13.945a1.717,1.717,0,0,0,2.424,0l1.027-1.027a1.716,1.716,0,0,0,0-2.424Z" transform="translate(-95.48 5)" fill="#c19405"/>
  </g>
</svg>
