<svg xmlns="http://www.w3.org/2000/svg" xmlns:xlink="http://www.w3.org/1999/xlink" width="54.5" height="54.5" viewBox="0 0 54.5 54.5">
  <defs>
    <filter id="Path_14" x="15.457" y="11.162" width="24.823" height="31.235" filterUnits="userSpaceOnUse">
      <feOffset dy="1" input="SourceAlpha"/>
      <feGaussianBlur stdDeviation="2" result="blur"/>
      <feFlood flood-opacity="0.761"/>
      <feComposite operator="in" in2="blur"/>
      <feComposite in="SourceGraphic"/>
    </filter>
    <filter id="Path_15" x="0" y="0" width="54.5" height="54.5" filterUnits="userSpaceOnUse">
      <feOffset dy="1" input="SourceAlpha"/>
      <feGaussianBlur stdDeviation="2" result="blur-2"/>
      <feFlood flood-opacity="0.549"/>
      <feComposite operator="in" in2="blur-2"/>
      <feComposite in="SourceGraphic"/>
    </filter>
  </defs>
  <g id="Component_19_1" data-name="Component 19 – 1" transform="translate(6 5)">
    <g transform="matrix(1, 0, 0, 1, -6, -5)" filter="url(#Path_14)">
      <path id="Path_14-2" data-name="Path 14" d="M170.667,136.568l12.823-9.617-12.823-9.617Z" transform="translate(-149.21 -101.17)" fill="#c19405"/>
    </g>
    <g transform="matrix(1, 0, 0, 1, -6, -5)" filter="url(#Path_15)">
      <path id="Path_15-2" data-name="Path 15" d="M21.25,0A21.25,21.25,0,1,0,42.5,21.25,21.244,21.244,0,0,0,21.25,0Zm0,38.25a17,17,0,1,1,17-17A17.023,17.023,0,0,1,21.25,38.25Z" transform="translate(6 5)" fill="#c19405"/>
    </g>
  </g>
</svg>
