<svg xmlns="http://www.w3.org/2000/svg" xmlns:xlink="http://www.w3.org/1999/xlink" width="30.41" height="43.337" viewBox="0 0 30.41 43.337">
  <defs>
    <filter id="Path_13" x="0" y="0" width="30.41" height="43.337" filterUnits="userSpaceOnUse">
      <feOffset dy="1" input="SourceAlpha"/>
      <feGaussianBlur stdDeviation="2" result="blur"/>
      <feFlood flood-opacity="0.612"/>
      <feComposite operator="in" in2="blur"/>
      <feComposite in="SourceGraphic"/>
    </filter>
  </defs>
  <g transform="matrix(1, 0, 0, 1, 0, 0)" filter="url(#Path_13)">
    <path id="Path_13-2" data-name="Path 13" d="M113.7,15.675,101.98,3.952a1.718,1.718,0,0,1,0-2.424L103.008.5a1.717,1.717,0,0,1,2.424,0L119.39,14.459a1.73,1.73,0,0,1,0,2.433L105.445,30.836a1.717,1.717,0,0,1-2.424,0l-1.027-1.027a1.716,1.716,0,0,1,0-2.424Z" transform="translate(-95.48 5)" fill="#c19405"/>
  </g>
</svg>
